<?xml version="1.0" encoding="iso-8859-1"?>
<!-- Generator: Adobe Illustrator 19.0.0, SVG Export Plug-In . SVG Version: 6.00 Build 0)  -->
<svg version="1.1" id="Capa_1" xmlns="http://www.w3.org/2000/svg" xmlns:xlink="http://www.w3.org/1999/xlink" x="0px" y="0px"
	 viewBox="0 0 512.001 512.001" style="enable-background:new 0 0 512.001 512.001;" xml:space="preserve">
<g>
	<g>
		<path d="M447.928,32.869l-71.667-32C374.985,0.309,373.579,0,372.184,0H100.152c-23.159,0-42,18.841-42,42s18.841,42,42,42
			h271.997c1.393,0,2.84-0.289,4.112-0.869l71.667-32c3.603-1.608,5.923-5.186,5.923-9.131S451.531,34.478,447.928,32.869z
			 M109.684,64h-9.532c-12.131,0-22-9.869-22-22s9.869-22,22-22h9.532V64z M362.184,64h-232.5V20h232.5V64z M382.184,58.583V25.417
			L419.323,42L382.184,58.583z"/>
	</g>
</g>
<g>
	<g>
		<path d="M461.939,83.938c-5.523,0-10,4.478-10,10v54.003H131.573c-5.523,0-10,4.478-10,10c0,5.522,4.477,10,10,10h320.365v229.994
			c0,5.522,4.477,10,10,10h8.061c12.132,0,22.001,9.869,22.001,22.001s-9.87,22.002-22.001,22.002h-32.926c-5.523,0-10,4.478-10,10
			c0,5.522,4.477,10,10,10h32.926c23.16,0,42.001-18.842,42.001-42.002V134C512.001,106.396,489.543,83.938,461.939,83.938z
			 M492.001,394.17c-5.886-3.634-12.732-5.856-20.063-6.191V105.647c11.677,4.13,20.063,15.28,20.063,28.353V394.17z"/>
	</g>
</g>
<g>
	<g>
		<path d="M103.988,451.938H42.002c-12.132,0-22.001-9.87-22.001-22.002s9.87-22.001,22.001-22.001h8.061c5.523,0,10-4.478,10-10
			V93.938c0-5.522-4.477-10-10-10c-27.604,0-50.062,22.458-50.062,50.062v295.936c0,23.16,18.842,42.002,42.001,42.002h61.985
			c5.523,0,10-4.478,10-10C113.987,456.416,109.511,451.938,103.988,451.938z M20.001,134c0-13.073,8.386-24.223,20.063-28.353
			v282.331c-7.33,0.335-14.176,2.558-20.063,6.191V134z"/>
	</g>
</g>
<g>
	<g>
		<path d="M100.991,150.87c-1.86-1.86-4.44-2.931-7.07-2.931c-2.64,0-5.21,1.071-7.07,2.931c-1.87,1.859-2.93,4.439-2.93,7.069
			s1.06,5.21,2.93,7.07c1.86,1.86,4.44,2.93,7.07,2.93s5.2-1.069,7.07-2.93c1.86-1.86,2.93-4.44,2.93-7.07
			S102.851,152.729,100.991,150.87z"/>
	</g>
</g>
<g>
	<g>
		<path d="M433.635,315.393l-37.469-67.082c-5.295-9.481-15.331-15.371-26.191-15.371H213.772c-12.269,0-23.18,7.346-27.795,18.713
			l-64.186,158.061c-2.954,7.274-2.956,15.288-0.004,22.563l24.746,61.001c4.614,11.374,15.525,18.723,27.8,18.723h185.82
			c13.209,0,24.721-8.474,28.645-21.086l47.292-151.979C438.521,331.119,437.626,322.538,433.635,315.393z M366.443,252.939
			l-18.536,42.517l-65.665-10.008l-48.856-32.509H366.443z M204.506,259.178c0.153-0.376,0.332-0.735,0.524-1.084l59.414,39.534
			l-60.776,86.004l-58.036,20.522L204.506,259.178z M174.331,492c-4.091,0-7.729-2.449-9.267-6.24l-23.863-58.825l67.468-23.856
			L344.641,492H174.331z M224.151,389.305l58.997-83.488l61.633,9.393l15.427,163.073L224.151,389.305z M416.992,332.992
			l-38.681,124.306l-14.112-149.169l18.618-42.704l33.357,59.721C417.505,327.526,417.803,330.388,416.992,332.992z"/>
	</g>
</g>
</svg>
