<?xml version="1.0" encoding="iso-8859-1"?>
<!-- Generator: Adobe Illustrator 18.1.1, SVG Export Plug-In . SVG Version: 6.00 Build 0)  -->
<svg version="1.1" id="Capa_1" xmlns="http://www.w3.org/2000/svg" xmlns:xlink="http://www.w3.org/1999/xlink" x="0px" y="0px"
	 viewBox="0 0 11.809 11.809" style="enable-background:new 0 0 11.809 11.809;" xml:space="preserve">
<g>
	<g>
		<g>
			<path style="fill:#010002;" d="M5.904,0.108c3.201,0,5.796,2.596,5.796,5.796c0,3.201-2.596,5.795-5.796,5.795
				c-3.2,0-5.796-2.595-5.796-5.795C0.108,2.704,2.704,0.108,5.904,0.108L5.904,0.108z M2.518,4.839v2.194h2.256V9.29h2.194V7.033
				h2.257V4.839H6.968V2.583H4.773v2.256H2.518z"/>
			<path style="fill:#010002;" d="M5.904,11.808C2.648,11.808,0,9.16,0,5.904S2.648,0,5.904,0s5.905,2.648,5.905,5.904
				S9.159,11.808,5.904,11.808z M5.904,0.216c-3.136,0-5.688,2.552-5.688,5.688s2.552,5.687,5.688,5.687s5.688-2.551,5.688-5.687
				S9.04,0.216,5.904,0.216z M7.076,9.399h-2.41V7.142H2.41V4.731h2.255V2.476h2.411v2.256h2.257v2.411H7.076V9.399z M4.882,9.182
				H6.86V6.926h2.256V4.947H6.86V2.691H4.881v2.256H2.626v1.979h2.256V9.182z"/>
		</g>
	</g>
</g>
<g>
</g>
<g>
</g>
<g>
</g>
<g>
</g>
<g>
</g>
<g>
</g>
<g>
</g>
<g>
</g>
<g>
</g>
<g>
</g>
<g>
</g>
<g>
</g>
<g>
</g>
<g>
</g>
<g>
</g>
</svg>
